<?xml version="1.0" standalone="no"?>
<!DOCTYPE svg PUBLIC "-//W3C//DTD SVG 20010904//EN"
 "http://www.w3.org/TR/2001/REC-SVG-20010904/DTD/svg10.dtd">
<svg version="1.0" xmlns="http://www.w3.org/2000/svg"
 width="512.000000pt" height="512.000000pt" viewBox="0 0 512.000000 512.000000"
 preserveAspectRatio="xMidYMid meet">

<g transform="translate(0.000000,512.000000) scale(0.100000,-0.100000)"
fill="#0d58da" stroke="none">
<path d="M1435 4320 l-160 -160 1680 -2 1680 -3 3 -237 2 -238 -545 0 -545 0
-138 69 c-85 43 -161 74 -197 80 -40 8 -411 11 -1159 11 l-1101 0 -160 -160
-160 -160 1268 0 1267 0 138 -69 c75 -38 161 -74 190 -80 36 -7 231 -11 598
-11 l544 0 -2 -1197 -3 -1198 -2075 0 -2075 0 -5 1198 -5 1197 -158 -158 -158
-158 3 -1064 3 -1065 28 -60 c36 -78 104 -146 181 -182 l61 -28 2104 -3 c2336
-3 2160 -8 2268 64 31 20 67 56 88 87 69 105 66 -4 63 1793 l-3 1619 -31 65
c-40 82 -92 134 -174 174 l-65 31 -1545 3 -1545 2 -160 -160z"/>
<path d="M1405 2870 c-73 -16 -117 -73 -117 -149 0 -62 10 -81 95 -168 l70
-73 -70 -72 c-84 -88 -95 -107 -95 -169 0 -89 62 -151 151 -151 62 0 81 10
168 95 l73 70 79 -76 c57 -54 91 -79 120 -87 116 -31 222 75 191 191 -8 29
-33 63 -87 120 l-76 79 70 73 c84 87 95 106 95 168 0 89 -62 151 -151 151 -62
0 -81 -10 -168 -95 l-73 -70 -72 70 c-96 92 -133 109 -203 93z"/>
<path d="M3145 2865 c-49 -17 -81 -53 -95 -105 -18 -68 1 -113 88 -202 l75
-78 -75 -78 c-56 -57 -79 -89 -87 -120 -32 -119 72 -223 191 -191 31 8 63 31
120 87 l78 75 78 -75 c92 -90 136 -109 204 -89 53 16 93 56 109 109 20 68 1
112 -89 204 l-75 78 75 78 c56 57 79 89 87 120 32 119 -72 223 -191 191 -31
-8 -63 -31 -120 -87 l-78 -75 -78 75 c-54 53 -89 79 -117 87 -49 13 -51 13
-100 -4z"/>
<path d="M1865 1745 c-97 -35 -131 -155 -69 -243 8 -12 88 -60 177 -105 l162
-82 102 0 101 0 111 55 111 54 111 -54 111 -55 101 0 102 0 165 85 c156 80
166 87 188 130 12 24 22 56 22 70 0 49 -42 113 -90 138 -24 12 -56 22 -70 22
-14 0 -91 -32 -173 -72 l-147 -72 -111 54 -110 55 -99 0 -99 0 -110 -55 -111
-54 -134 66 c-151 75 -184 84 -241 63z"/>
</g>
</svg>
